<svg data-v-1084b650="" xmlns="http://www.w3.org/2000/svg" viewBox="0 0 300 300"><!----> <!----> <rect data-v-1084b650="" fill="none" x="0" y="0" width="300px" height="300px" class="logo-background-square"></rect> <!----> <!----> <g data-v-1084b650="" id="332badb4-7781-1b3e-7c07-abfc81b17f75" fill="#db5461" stroke="none" transform="matrix(0.800000011920929,0,0,0.800000011920929,29.998239517211914,29.99974250793457)"><svg xmlns="http://www.w3.org/2000/svg" xmlns:xlink="http://www.w3.org/1999/xlink" version="1.1" x="0px" y="0px" viewBox="0 0 100 100" enable-background="new 0 0 100 100" xml:space="preserve"><path d="M93.262,25.596l-4.106-3.451c-0.011-0.009-0.025-0.012-0.036-0.02c-0.016-0.011-0.025-0.025-0.042-0.034l-2.188-1.215  c-0.138-0.077-0.305-0.083-0.449-0.019l-2.746,1.239c-0.106,0.048-0.192,0.132-0.243,0.237L69.908,50.188l-17.786-2.905  c-0.032-0.005-0.062,0.002-0.094,0.003c-0.005,0-0.009,0-0.014,0.001c-0.095,0.005-0.188,0.029-0.264,0.083  c0,0.001-0.001,0-0.002,0.001c-0.25,0.166-3.309,1.781-6.266,3.342c-11.032,5.825-11.287,5.959-11.293,6.365l-11.062,7.066  L6.965,67.261c-0.25,0.048-0.424,0.276-0.403,0.531c0.02,0.254,0.228,0.452,0.482,0.46l16.477,0.51c0.006,0,0.011,0,0.016,0  c0.041,0,0.083-0.005,0.124-0.016c4.61-1.18,13.079-3.346,14.612-3.729c1.685,3.163,4.06,7.603,7.423,13.869  c0.087,0.163,0.256,0.264,0.44,0.264h1.641c0.25,0,0.461-0.184,0.495-0.432l1.632-11.817l1.216,0.763  c0.079,0.05,0.172,0.077,0.266,0.077h8.36c0,0.003-0.002,0.006-0.002,0.01v10.936c0,0.276,0.224,0.5,0.5,0.5h2.552  c0.151,0,0.294-0.068,0.389-0.186l4.774-5.905c0.058-0.071,0.094-0.156,0.106-0.246l0.705-5.109h2.153  c0.169,0,0.327-0.085,0.419-0.228l3.646-5.614c0.081-0.125,0.103-0.278,0.059-0.419l-0.338-1.098l12.681-32.741l4.843,0.51  c0.018,0.002,0.035,0.003,0.053,0.003c0.204,0,0.39-0.125,0.466-0.318l0.656-1.677C93.484,25.961,93.427,25.734,93.262,25.596z   M84.271,22.933l2.353-1.062l1.587,0.882L74.164,59.021l-3.422-8.262L84.271,22.933z M22.853,65.216l0.151,2.529L11.57,67.392  L22.853,65.216z M35.961,64.572l-11.962,3.056l-0.165-2.748l10.755-6.869c0.431,0.856,1.331,2.582,3.206,6.108  C37.381,64.211,36.797,64.359,35.961,64.572z M47.341,78.151h-0.906c-4.11-7.66-10.03-18.737-11.108-20.867  c1.354-0.792,6.649-3.588,10.624-5.687c2.902-1.533,4.558-2.409,5.458-2.895L47.341,78.151z M67.093,72.576l-4.536,5.611h-1.813  V67.752c0-0.004-0.002-0.007-0.002-0.01h7.02L67.093,72.576z M70.651,66.742H51.528l-1.475-0.925l2.412-17.464l17.373,2.838  l3.871,9.347l0.312,1.014L70.651,66.742z M91.957,27.118l-4.194-0.442l1.285-3.316l3.296,2.771L91.957,27.118z"></path></svg></g></svg>