<?xml version="1.0" standalone="no"?>
<!DOCTYPE svg PUBLIC "-//W3C//DTD SVG 20010904//EN"
 "http://www.w3.org/TR/2001/REC-SVG-20010904/DTD/svg10.dtd">
<svg version="1.0" xmlns="http://www.w3.org/2000/svg"
 width="700.000000pt" height="700.000000pt" viewBox="0 0 700.000000 700.000000"
 preserveAspectRatio="xMidYMid meet">
<metadata>
Created by potrace 1.11, written by Peter Selinger 2001-2013
</metadata>
<g transform="translate(0.000000,700.000000) scale(0.100000,-0.100000)"
fill="#000000" stroke="none">
<path d="M5460 5097 l-75 -32 -110 -220 c-60 -122 -146 -295 -189 -385 -44
-91 -142 -293 -219 -450 -76 -157 -164 -337 -194 -400 -30 -63 -56 -117 -58
-118 -2 -2 -27 1 -57 7 -49 9 -73 13 -168 27 -19 3 -46 7 -60 9 -14 3 -43 8
-65 11 -22 3 -44 7 -50 8 -5 1 -144 24 -307 51 l-297 49 -73 -38 c-40 -22
-129 -69 -198 -106 -69 -37 -179 -95 -245 -130 -296 -157 -450 -243 -479 -268
-18 -15 -119 -83 -226 -151 -107 -68 -239 -153 -293 -188 -80 -52 -112 -66
-170 -78 -97 -19 -375 -73 -412 -80 -57 -10 -90 -16 -160 -30 -74 -15 -91 -18
-195 -36 -72 -13 -90 -23 -90 -50 0 -14 8 -19 28 -20 15 -1 54 -2 87 -4 33 -1
155 -5 270 -9 116 -3 289 -9 385 -12 l176 -6 219 56 c121 30 306 77 412 105
139 35 195 46 201 37 5 -6 31 -54 59 -106 103 -193 131 -247 168 -315 21 -38
58 -108 83 -155 111 -209 102 -198 157 -200 85 -4 88 -1 100 110 4 36 8 67 10
70 1 3 6 30 9 61 4 31 8 65 10 75 4 21 12 83 22 159 3 28 8 58 10 69 2 10 6
44 10 75 3 31 7 57 9 59 1 2 20 -7 41 -20 37 -22 47 -23 274 -23 l235 0 0
-312 c0 -172 4 -315 8 -319 4 -4 43 -8 88 -9 93 -1 86 -5 179 110 193 240 189
234 196 283 3 26 8 54 10 64 1 9 6 38 10 65 6 42 9 62 13 109 1 6 22 11 49 11
26 0 57 1 69 2 17 1 42 31 106 129 134 206 129 195 121 247 -6 44 -3 58 32
140 7 17 108 278 224 580 117 303 236 611 265 685 29 74 81 209 116 298 l63
164 55 -6 c31 -3 83 -8 116 -12 33 -3 72 -7 87 -9 33 -4 40 5 64 73 l19 53
-40 36 c-146 131 -186 163 -262 207 -34 20 -70 36 -80 36 -10 0 -52 -15 -93
-33z m141 -49 c21 -13 37 -27 35 -33 -2 -5 -75 -192 -161 -415 -86 -223 -160
-414 -165 -425 -5 -11 -25 -60 -44 -110 -52 -138 -106 -278 -116 -300 -4 -11
-57 -146 -116 -300 -59 -154 -124 -322 -144 -374 l-37 -94 -33 79 c-18 43 -61
147 -95 230 l-63 152 80 163 c44 90 104 214 133 274 29 61 106 218 170 350 64
132 141 290 170 350 29 61 87 180 129 265 l75 155 58 27 c72 33 75 33 124 6z
m103 -70 c7 -7 37 -33 66 -58 30 -25 65 -54 78 -65 21 -18 22 -23 12 -47 -11
-22 -18 -26 -44 -23 -17 2 -58 6 -91 10 -92 9 -100 11 -100 22 0 13 59 173 63
173 2 0 9 -6 16 -12z m-1894 -1414 c52 -8 109 -18 125 -20 17 -3 55 -9 85 -14
30 -5 69 -12 85 -14 17 -3 86 -14 154 -26 68 -11 138 -22 155 -25 17 -3 42 -8
56 -10 14 -3 45 -7 69 -10 24 -3 51 -10 60 -14 15 -9 222 -491 237 -553 5 -23
-9 -51 -87 -171 l-92 -144 -537 0 -537 0 -39 27 c-22 15 -38 31 -37 36 1 5 4
29 7 54 6 50 11 87 32 240 8 58 17 123 20 145 5 41 8 62 18 130 4 22 8 56 10
75 11 90 37 277 42 298 5 26 -4 27 174 -4z m-241 -64 c-5 -36 -11 -81 -14
-100 -6 -39 -23 -156 -30 -210 -2 -19 -11 -84 -20 -145 -8 -60 -17 -126 -20
-145 -8 -67 -16 -125 -20 -150 -2 -14 -7 -43 -9 -65 -3 -22 -8 -58 -11 -80 -3
-22 -8 -56 -10 -75 -3 -19 -7 -51 -10 -70 -3 -19 -14 -98 -25 -175 -11 -77
-22 -158 -25 -180 -21 -175 -23 -185 -43 -182 -9 1 -22 6 -29 10 -6 4 -96 166
-199 360 -265 499 -259 487 -286 537 -108 196 -137 258 -125 267 12 10 85 49
272 148 50 26 113 60 140 75 148 81 469 249 471 247 1 -1 -2 -31 -7 -67z
m-890 -530 c13 -25 48 -91 78 -148 30 -57 53 -106 50 -109 -6 -5 -58 -19 -518
-137 l-246 -63 -2 60 c-1 34 -4 64 -7 68 -9 15 36 50 186 144 85 54 178 112
205 130 28 18 86 55 129 83 89 57 81 59 125 -28z m-696 -394 l5 -68 -251 7
c-139 4 -275 8 -304 8 -29 1 -49 4 -45 8 4 3 61 16 127 27 66 12 197 37 290
56 94 18 171 33 171 32 1 -1 4 -32 7 -70z m2503 -124 c-3 -29 -10 -90 -17
-134 l-12 -81 -105 -131 c-153 -191 -148 -186 -202 -186 l-47 0 -2 277 c0 153
1 285 4 294 5 14 29 16 196 15 l190 0 -5 -54z"/>
</g>
</svg>
